<svg version="1.1" id="Layer_1" xmlns="http://www.w3.org/2000/svg" xmlns:xlink="http://www.w3.org/1999/xlink" x="0px" y="0px"
	 width="100%" viewBox="0 0 500 336" enable-background="new 0 0 500 336" xml:space="preserve">
<path fill="#000000" opacity="1.000000" stroke="none" 
	d="
M469.000000,337.000000 
	C312.666687,337.000000 156.833374,337.000000 1.000042,337.000000 
	C1.000028,225.000031 1.000028,113.000061 1.000014,1.000072 
	C167.666611,1.000048 334.333221,1.000048 500.999878,1.000024 
	C500.999939,112.999939 500.999939,224.999878 500.999969,336.999908 
	C490.500000,337.000000 480.000000,337.000000 469.000000,337.000000 
M241.380325,165.449158 
	C241.518127,177.943787 241.757965,190.438263 241.773895,202.933060 
	C241.815552,235.598480 241.771683,268.264038 241.712799,300.929443 
	C241.709076,302.993835 241.284210,305.057434 241.055267,307.121399 
	C240.581665,307.085083 240.108063,307.048767 239.634460,307.012451 
	C239.507721,304.931213 239.271667,302.850006 239.270355,300.768707 
	C239.242554,256.936829 239.227539,213.104950 239.294708,169.273193 
	C239.296936,167.815216 240.183975,166.358566 241.126328,163.821976 
	C250.472839,162.462357 259.754425,163.127823 269.044098,163.542145 
	C269.022430,164.411728 269.000793,165.281296 268.979156,166.150879 
	C259.564056,165.703918 250.148941,165.256958 241.380325,165.449158 
M255.099121,149.923752 
	C258.743103,149.285751 262.387085,148.647751 265.873871,148.037277 
	C266.287811,143.651291 264.745453,139.390869 269.317169,137.040070 
	C269.827148,136.777832 269.744781,135.276505 269.856110,134.340195 
	C270.581604,128.239761 266.971924,124.126457 262.639008,121.112061 
	C257.852448,117.782082 252.103317,118.417961 246.970413,120.614380 
	C240.059021,123.571838 239.529739,130.308578 239.192734,136.542892 
	C238.679688,146.034149 243.850266,150.510025 252.797974,149.036774 
	C253.424774,148.933578 254.104492,149.151733 255.099121,149.923752 
z"/>
<path fill="#F7F1E7" opacity="1.000000" stroke="none" 
	d="
M254.929352,149.572083 
	C254.104492,149.151733 253.424774,148.933578 252.797974,149.036774 
	C243.850266,150.510025 238.679688,146.034149 239.192734,136.542892 
	C239.529739,130.308578 240.059021,123.571838 246.970413,120.614380 
	C252.103317,118.417961 257.852448,117.782082 262.639008,121.112061 
	C266.971924,124.126457 270.581604,128.239761 269.856110,134.340195 
	C269.744781,135.276505 269.827148,136.777832 269.317169,137.040070 
	C264.745453,139.390869 266.287811,143.651291 265.873871,148.037277 
	C262.387085,148.647751 258.743103,149.285751 254.929352,149.572083 
z"/>
<path fill="#F7F1E7" opacity="1.000000" stroke="none" 
	d="
M240.658569,164.901306 
	C240.183975,166.358566 239.296936,167.815216 239.294708,169.273193 
	C239.227539,213.104950 239.242554,256.936829 239.270355,300.768707 
	C239.271667,302.850006 239.507721,304.931213 239.634460,307.012451 
	C240.108063,307.048767 240.581665,307.085083 241.055267,307.121399 
	C241.284210,305.057434 241.709076,302.993835 241.712799,300.929443 
	C241.771683,268.264038 241.815552,235.598480 241.773895,202.933060 
	C241.757965,190.438263 241.518127,177.943787 241.057388,165.168182 
	C240.734451,164.887192 240.658569,164.901306 240.658569,164.901306 
z"/>
<path fill="#F7F1E7" opacity="1.000000" stroke="none" 
	d="
M240.734146,164.848602 
	C250.148941,165.256958 259.564056,165.703918 268.979156,166.150879 
	C269.000793,165.281296 269.022430,164.411728 269.044098,163.542145 
	C259.754425,163.127823 250.472839,162.462357 240.892456,164.361633 
	C240.658569,164.901306 240.734451,164.887192 240.734146,164.848602 
z"/>
</svg>